<svg width="132" height="125" viewBox="0 0 132 125" fill="none" xmlns="http://www.w3.org/2000/svg">
<path d="M74.6805 124.205C76.006 125.133 77.8278 124.184 77.8279 122.566V87.4069H87.2166L107.659 102.126C108.982 103.078 110.828 102.133 110.828 100.503V87.4069H129.565C131.518 87.4066 132.313 84.896 130.716 83.7721L110.828 69.776V41.4313C110.828 40.7882 110.518 40.184 109.996 39.8083L88.9959 24.6891C87.6729 23.7366 85.8279 24.682 85.8279 26.3122V68.4069H77.8279V18.3835C77.8279 17.7673 77.5432 17.1852 77.0574 16.8063L56.0574 0.426422C54.7442 -0.597557 52.828 0.338211 52.8279 2.00357V68.4069H44.8279V34.9313C44.8278 34.2882 44.5178 33.684 43.9959 33.3083L22.9959 18.1891C21.6729 17.2366 19.8279 18.182 19.8279 19.8122V68.4069H2.00372C0.0695932 68.4069 -0.737968 70.8792 0.823055 72.0212L21.3279 87.0212C21.3463 87.0346 21.3649 87.0475 21.3836 87.0602L41.6375 102.047C42.9576 103.023 44.8279 102.081 44.8279 100.439V87.4069H52.8279V107.866C52.8279 108.518 53.1459 109.13 53.6805 109.505L74.6805 124.205Z" fill="white"/>
</svg>
